<svg width="263" height="178" viewBox="0 0 263 178" fill="none" xmlns="http://www.w3.org/2000/svg">
<path d="M63.256 56.456C61.9387 56.456 60.71 56.2533 59.57 55.848C58.43 55.4173 57.4293 54.8093 56.568 54.024C55.732 53.2133 55.0733 52.238 54.592 51.098C54.136 49.958 53.908 48.666 53.908 47.222V33.77C53.908 32.9593 53.756 32.4273 53.452 32.174C53.1733 31.9207 52.5147 31.7053 51.476 31.528L49.158 31.11V30.426H62.078V31.11L59.76 31.528C58.7213 31.7053 58.05 31.9207 57.746 32.174C57.4673 32.4273 57.328 32.9593 57.328 33.77V47.184C57.328 49.5653 57.9613 51.402 59.228 52.694C60.52 53.9607 62.23 54.594 64.358 54.594C65.9033 54.594 67.1953 54.29 68.234 53.682C69.298 53.074 70.1087 52.2127 70.666 51.098C71.2233 49.958 71.502 48.6027 71.502 47.032V34.036C71.502 33.2253 71.35 32.6553 71.046 32.326C70.7673 31.9713 70.1087 31.7053 69.07 31.528L66.752 31.11V30.426H77.354V31.11L75.036 31.528C73.9973 31.7053 73.326 31.946 73.022 32.25C72.7433 32.554 72.604 33.1113 72.604 33.922V51.82C72.0973 51.82 71.654 51.9973 71.274 52.352C70.894 52.7067 70.4633 53.1247 69.982 53.606C69.5767 54.0367 69.0827 54.48 68.5 54.936C67.9427 55.3667 67.2333 55.7213 66.372 56C65.536 56.304 64.4973 56.456 63.256 56.456ZM95.6317 56.342L86.3217 33.96L85.4477 52.618C85.4224 53.4033 85.5617 53.9227 85.8657 54.176C86.1697 54.4293 86.841 54.6573 87.8797 54.86L90.2357 55.316V56H79.6337V55.316L81.9517 54.86C82.661 54.708 83.1804 54.5687 83.5097 54.442C83.839 54.29 84.0544 54.0873 84.1557 53.834C84.2824 53.5553 84.3584 53.15 84.3837 52.618L85.1817 33.998C85.2324 33.1873 85.093 32.6047 84.7637 32.25C84.4344 31.8953 83.763 31.6167 82.7497 31.414L81.1537 31.11V30.426H88.4497L96.9237 50.224L105.208 30.426H112.96V31.11L110.68 31.49C109.666 31.6673 108.995 31.9207 108.666 32.25C108.362 32.5793 108.222 33.1747 108.248 34.036L108.742 52.656C108.767 53.188 108.83 53.5933 108.932 53.872C109.033 54.1507 109.261 54.366 109.616 54.518C109.97 54.6447 110.49 54.7713 111.174 54.898L113.492 55.316V56H101.332V55.316L103.992 54.822C104.498 54.7207 104.828 54.5813 104.98 54.404C105.132 54.2267 105.208 53.9353 105.208 53.53L104.828 34.682L95.8977 56.342H95.6317ZM135.82 56.304C133.743 56.304 131.957 56.038 130.462 55.506C128.993 54.9487 127.827 54.442 126.966 53.986C127.169 52.8713 127.257 51.744 127.232 50.604C127.232 49.4387 127.08 48.2607 126.776 47.07H127.878C128.081 48.6407 128.511 50.0593 129.17 51.326C129.854 52.5673 130.766 53.5553 131.906 54.29C133.046 55.0247 134.427 55.392 136.048 55.392C137.137 55.392 138.1 55.1893 138.936 54.784C139.797 54.3533 140.469 53.7707 140.95 53.036C141.457 52.3013 141.71 51.4527 141.71 50.49C141.71 49.502 141.507 48.6913 141.102 48.058C140.722 47.3993 140.038 46.804 139.05 46.272C138.062 45.7147 136.643 45.1193 134.794 44.486C132.539 43.7007 130.791 42.7887 129.55 41.75C128.334 40.686 127.726 39.1787 127.726 37.228C127.726 35.936 128.03 34.7453 128.638 33.656C129.246 32.5413 130.158 31.6547 131.374 30.996C132.59 30.312 134.097 29.97 135.896 29.97C136.681 29.97 137.353 30.0713 137.91 30.274C138.467 30.4767 138.987 30.692 139.468 30.92C139.848 31.0973 140.215 31.262 140.57 31.414C140.925 31.566 141.279 31.642 141.634 31.642L142.584 31.452L142.736 31.566C142.711 31.8953 142.685 32.212 142.66 32.516C142.635 32.82 142.622 33.124 142.622 33.428C142.622 33.96 142.647 34.492 142.698 35.024C142.749 35.5307 142.825 36.0373 142.926 36.544C143.027 37.0507 143.141 37.5573 143.268 38.064H142.432C141.925 36.7467 141.381 35.556 140.798 34.492C140.215 33.4027 139.493 32.5413 138.632 31.908C137.796 31.2493 136.719 30.92 135.402 30.92C134.566 30.92 133.781 31.0973 133.046 31.452C132.311 31.8067 131.716 32.326 131.26 33.01C130.804 33.694 130.576 34.53 130.576 35.518C130.576 36.4807 130.741 37.2787 131.07 37.912C131.399 38.52 132.02 39.0773 132.932 39.584C133.869 40.0653 135.237 40.6227 137.036 41.256C138.911 41.8893 140.393 42.5607 141.482 43.27C142.571 43.954 143.344 44.7393 143.8 45.626C144.281 46.5127 144.522 47.5893 144.522 48.856C144.522 50.2493 144.155 51.516 143.42 52.656C142.685 53.7707 141.659 54.6573 140.342 55.316C139.05 55.9747 137.543 56.304 135.82 56.304ZM147.957 56V55.316L150.275 54.898C151.313 54.6953 151.972 54.4673 152.251 54.214C152.555 53.9607 152.707 53.4413 152.707 52.656V33.77C152.707 32.9593 152.555 32.4273 152.251 32.174C151.972 31.9207 151.313 31.7053 150.275 31.528L147.957 31.11V30.426H160.877V31.11L158.559 31.528C157.52 31.7053 156.849 31.9207 156.545 32.174C156.266 32.4273 156.127 32.9593 156.127 33.77V52.656C156.127 53.4413 156.266 53.9607 156.545 54.214C156.849 54.4673 157.52 54.6953 158.559 54.898L160.877 55.316V56H147.957ZM169.12 56V55.316L171.438 54.898C172.476 54.6953 173.135 54.4673 173.414 54.214C173.718 53.9607 173.87 53.4413 173.87 52.656V31.338H170.26C169.018 31.338 167.967 31.604 167.106 32.136C166.27 32.6427 165.586 33.3393 165.054 34.226C164.522 35.0873 164.091 36.0627 163.762 37.152H162.964C163.141 36.164 163.268 35.3027 163.344 34.568C163.445 33.8333 163.496 33.1367 163.496 32.478C163.496 31.8193 163.445 31.1353 163.344 30.426H187.778C187.676 31.1353 187.626 31.8193 187.626 32.478C187.626 33.1367 187.676 33.8333 187.778 34.568C187.879 35.3027 188.018 36.164 188.196 37.152H187.398C187.094 36.0627 186.663 35.0873 186.106 34.226C185.574 33.3393 184.877 32.6427 184.016 32.136C183.18 31.604 182.141 31.338 180.9 31.338H177.29V52.656C177.29 53.4413 177.429 53.9607 177.708 54.214C178.012 54.4673 178.683 54.6953 179.722 54.898L182.04 55.316V56H169.12ZM190.298 56V55.316L192.616 54.898C193.655 54.6953 194.314 54.4673 194.592 54.214C194.896 53.9607 195.048 53.4413 195.048 52.656V33.77C195.048 32.9593 194.896 32.4273 194.592 32.174C194.314 31.9207 193.655 31.7053 192.616 31.528L190.298 31.11V30.426H211.92C211.844 30.7807 211.781 31.1353 211.73 31.49C211.705 31.8447 211.692 32.1993 211.692 32.554C211.692 33.4913 211.768 34.3653 211.92 35.176C212.098 35.9613 212.224 36.62 212.3 37.152H211.54C211.16 36.0373 210.717 35.0493 210.21 34.188C209.729 33.3013 209.083 32.6047 208.272 32.098C207.462 31.5913 206.41 31.338 205.118 31.338H198.506V41.978H204.548C205.866 41.978 206.74 41.75 207.17 41.294C207.626 40.838 207.956 40.078 208.158 39.014L208.5 37.228H209.184V47.792H208.5L208.158 46.006C207.956 44.942 207.626 44.182 207.17 43.726C206.74 43.27 205.866 43.042 204.548 43.042H198.506V52.58C198.506 53.188 198.582 53.682 198.734 54.062C198.886 54.4167 199.178 54.67 199.608 54.822C200.039 54.974 200.66 55.05 201.47 55.05H204.966C206.005 55.05 206.968 54.8473 207.854 54.442C208.741 54.0367 209.501 53.53 210.134 52.922C210.793 52.2887 211.274 51.6807 211.578 51.098L212.566 49.16H213.288C212.959 50.3253 212.718 51.516 212.566 52.732C212.414 53.9227 212.326 55.012 212.3 56H190.298ZM99.6198 104.304C97.5424 104.304 95.7564 104.038 94.2618 103.506C92.7924 102.949 91.6271 102.442 90.7658 101.986C90.9684 100.871 91.0571 99.744 91.0318 98.604C91.0318 97.4387 90.8798 96.2607 90.5758 95.07H91.6778C91.8804 96.6407 92.3111 98.0593 92.9698 99.326C93.6538 100.567 94.5658 101.555 95.7058 102.29C96.8458 103.025 98.2264 103.392 99.8478 103.392C100.937 103.392 101.9 103.189 102.736 102.784C103.597 102.353 104.268 101.771 104.75 101.036C105.256 100.301 105.51 99.4527 105.51 98.49C105.51 97.502 105.307 96.6913 104.902 96.058C104.522 95.3993 103.838 94.804 102.85 94.272C101.862 93.7147 100.443 93.1193 98.5938 92.486C96.3391 91.7007 94.5911 90.7887 93.3498 89.75C92.1338 88.686 91.5258 87.1787 91.5258 85.228C91.5258 83.936 91.8298 82.7453 92.4378 81.656C93.0458 80.5413 93.9578 79.6547 95.1738 78.996C96.3898 78.312 97.8971 77.97 99.6958 77.97C100.481 77.97 101.152 78.0713 101.71 78.274C102.267 78.4767 102.786 78.692 103.268 78.92C103.648 79.0973 104.015 79.262 104.37 79.414C104.724 79.566 105.079 79.642 105.434 79.642L106.384 79.452L106.536 79.566C106.51 79.8953 106.485 80.212 106.46 80.516C106.434 80.82 106.422 81.124 106.422 81.428C106.422 81.96 106.447 82.492 106.498 83.024C106.548 83.5307 106.624 84.0373 106.726 84.544C106.827 85.0507 106.941 85.5573 107.068 86.064H106.232C105.725 84.7467 105.18 83.556 104.598 82.492C104.015 81.4027 103.293 80.5413 102.432 79.908C101.596 79.2493 100.519 78.92 99.2018 78.92C98.3658 78.92 97.5804 79.0973 96.8458 79.452C96.1111 79.8067 95.5158 80.326 95.0598 81.01C94.6038 81.694 94.3758 82.53 94.3758 83.518C94.3758 84.4807 94.5404 85.2787 94.8698 85.912C95.1991 86.52 95.8198 87.0773 96.7318 87.584C97.6691 88.0653 99.0371 88.6227 100.836 89.256C102.71 89.8893 104.192 90.5607 105.282 91.27C106.371 91.954 107.144 92.7393 107.6 93.626C108.081 94.5127 108.322 95.5893 108.322 96.856C108.322 98.2493 107.954 99.516 107.22 100.656C106.485 101.771 105.459 102.657 104.142 103.316C102.85 103.975 101.342 104.304 99.6198 104.304ZM111.756 104V103.316L114.074 102.898C115.113 102.695 115.772 102.467 116.05 102.214C116.354 101.961 116.506 101.441 116.506 100.656V81.77C116.506 80.9593 116.354 80.4273 116.05 80.174C115.772 79.9207 115.113 79.7053 114.074 79.528L111.756 79.11V78.426H133.378C133.302 78.7807 133.239 79.1353 133.188 79.49C133.163 79.8447 133.15 80.1993 133.15 80.554C133.15 81.4913 133.226 82.3653 133.378 83.176C133.556 83.9613 133.682 84.62 133.758 85.152H132.998C132.618 84.0373 132.175 83.0493 131.668 82.188C131.187 81.3013 130.541 80.6047 129.73 80.098C128.92 79.5913 127.868 79.338 126.576 79.338H119.964V89.978H126.006C127.324 89.978 128.198 89.75 128.628 89.294C129.084 88.838 129.414 88.078 129.616 87.014L129.958 85.228H130.642V95.792H129.958L129.616 94.006C129.414 92.942 129.084 92.182 128.628 91.726C128.198 91.27 127.324 91.042 126.006 91.042H119.964V100.58C119.964 101.188 120.04 101.682 120.192 102.062C120.344 102.417 120.636 102.67 121.066 102.822C121.497 102.974 122.118 103.05 122.928 103.05H126.424C127.463 103.05 128.426 102.847 129.312 102.442C130.199 102.037 130.959 101.53 131.592 100.922C132.251 100.289 132.732 99.6807 133.036 99.098L134.024 97.16H134.746C134.417 98.3253 134.176 99.516 134.024 100.732C133.872 101.923 133.784 103.012 133.758 104H111.756ZM151.298 104.456C149.981 104.456 148.752 104.253 147.612 103.848C146.472 103.417 145.471 102.809 144.61 102.024C143.774 101.213 143.115 100.238 142.634 99.098C142.178 97.958 141.95 96.666 141.95 95.222V81.77C141.95 80.9593 141.798 80.4273 141.494 80.174C141.215 79.9207 140.557 79.7053 139.518 79.528L137.2 79.11V78.426H150.12V79.11L147.802 79.528C146.763 79.7053 146.092 79.9207 145.788 80.174C145.509 80.4273 145.37 80.9593 145.37 81.77V95.184C145.37 97.5653 146.003 99.402 147.27 100.694C148.562 101.961 150.272 102.594 152.4 102.594C153.945 102.594 155.237 102.29 156.276 101.682C157.34 101.074 158.151 100.213 158.708 99.098C159.265 97.958 159.544 96.6027 159.544 95.032V82.036C159.544 81.2253 159.392 80.6553 159.088 80.326C158.809 79.9713 158.151 79.7053 157.112 79.528L154.794 79.11V78.426H165.396V79.11L163.078 79.528C162.039 79.7053 161.368 79.946 161.064 80.25C160.785 80.554 160.646 81.1113 160.646 81.922V99.82C160.139 99.82 159.696 99.9973 159.316 100.352C158.936 100.707 158.505 101.125 158.024 101.606C157.619 102.037 157.125 102.48 156.542 102.936C155.985 103.367 155.275 103.721 154.414 104C153.578 104.304 152.539 104.456 151.298 104.456ZM169.246 104.228C168.612 104.228 168.055 103.987 167.574 103.506C167.092 103.025 166.852 102.467 166.852 101.834C166.852 101.15 167.092 100.567 167.574 100.086C168.055 99.6047 168.612 99.364 169.246 99.364C169.93 99.364 170.512 99.6047 170.994 100.086C171.475 100.567 171.716 101.15 171.716 101.834C171.716 102.467 171.475 103.025 170.994 103.506C170.512 103.987 169.93 104.228 169.246 104.228Z" fill="#0A3955"/>
<path d="M130.716 58.8161C155.465 58.8161 180.223 58.4525 204.978 58.4525C209.355 58.4525 213.732 58.4525 218.109 58.4525C219.242 58.4525 218.391 58.3145 217.867 57.9272C216.783 57.1272 216.118 57.2755 214.756 57.1191C198.045 55.2015 181.275 57.4292 164.736 60.1494C156.071 61.5746 147.048 62.9476 138.716 65.7251" stroke="#1D6D9C" stroke-width="1.5" stroke-linecap="round"/>
<path d="M162.716 57.907C162.049 63.9073 162.932 69.6038 169.786 71.523C170.706 71.7805 171.959 72.4002 172.897 72.4523C174.943 72.566 173.119 72.1057 172.897 70.9978C172.723 70.1255 173.034 69.7554 171.988 69.5231C171.543 69.4242 171.342 68.9351 170.897 68.8362C170.729 68.7987 170.029 68.9252 170.029 68.6342C170.029 68.5248 173.528 70.2405 173.988 70.816C174.598 71.5783 176.072 71.7884 176.817 72.5331C177.448 73.1648 179.706 73.7779 177.423 74.8159C176.177 75.3819 173.9 75.725 172.534 75.725" stroke="#1D6D9C" stroke-width="1.5" stroke-linecap="round"/>
<path d="M181.488 79V68.59H182.478L186.888 75.835H186.213L190.623 68.59H191.613V79H190.203V71.065L190.533 71.155L187.053 76.87H186.063L182.583 71.155L182.898 71.065V79H181.488ZM197.971 79.15C197.201 79.15 196.511 78.98 195.901 78.64C195.301 78.29 194.826 77.815 194.476 77.215C194.126 76.605 193.951 75.915 193.951 75.145V68.59H195.361V75.115C195.361 75.665 195.476 76.14 195.706 76.54C195.936 76.94 196.246 77.25 196.636 77.47C197.036 77.69 197.481 77.8 197.971 77.8C198.481 77.8 198.926 77.69 199.306 77.47C199.696 77.25 200.001 76.94 200.221 76.54C200.451 76.14 200.566 75.67 200.566 75.13V68.59H201.991V75.16C201.991 75.93 201.816 76.615 201.466 77.215C201.116 77.815 200.641 78.29 200.041 78.64C199.441 78.98 198.751 79.15 197.971 79.15ZM204.31 79V68.59H205.3L205.72 70.225V79H204.31ZM211.51 79L205.12 70.465L205.3 68.59L211.705 77.11L211.51 79ZM211.51 79L211.09 77.455V68.59H212.5V79H211.51ZM215.889 79V77.71H218.784C219.554 77.71 220.229 77.545 220.809 77.215C221.389 76.875 221.839 76.41 222.159 75.82C222.489 75.23 222.654 74.55 222.654 73.78C222.654 73.02 222.489 72.345 222.159 71.755C221.829 71.165 221.374 70.705 220.794 70.375C220.214 70.045 219.544 69.88 218.784 69.88H215.904V68.59H218.814C219.574 68.59 220.274 68.72 220.914 68.98C221.564 69.24 222.124 69.605 222.594 70.075C223.074 70.545 223.444 71.095 223.704 71.725C223.974 72.355 224.109 73.045 224.109 73.795C224.109 74.535 223.974 75.225 223.704 75.865C223.444 76.495 223.079 77.045 222.609 77.515C222.139 77.985 221.579 78.35 220.929 78.61C220.289 78.87 219.594 79 218.844 79H215.889ZM214.959 79V68.59H216.369V79H214.959ZM230.803 79.15C230.063 79.15 229.373 79.015 228.733 78.745C228.093 78.465 227.533 78.08 227.053 77.59C226.573 77.09 226.198 76.515 225.928 75.865C225.668 75.215 225.538 74.52 225.538 73.78C225.538 73.03 225.668 72.335 225.928 71.695C226.198 71.045 226.568 70.475 227.038 69.985C227.518 69.495 228.073 69.115 228.703 68.845C229.343 68.575 230.033 68.44 230.773 68.44C231.513 68.44 232.198 68.575 232.828 68.845C233.468 69.115 234.028 69.495 234.508 69.985C234.988 70.475 235.363 71.045 235.633 71.695C235.903 72.345 236.038 73.045 236.038 73.795C236.038 74.535 235.903 75.23 235.633 75.88C235.363 76.53 234.988 77.1 234.508 77.59C234.038 78.08 233.483 78.465 232.843 78.745C232.213 79.015 231.533 79.15 230.803 79.15ZM230.773 77.8C231.523 77.8 232.178 77.63 232.738 77.29C233.308 76.94 233.758 76.465 234.088 75.865C234.418 75.255 234.583 74.56 234.583 73.78C234.583 73.2 234.488 72.67 234.298 72.19C234.108 71.7 233.843 71.275 233.503 70.915C233.163 70.555 232.763 70.28 232.303 70.09C231.843 69.89 231.333 69.79 230.773 69.79C230.033 69.79 229.378 69.96 228.808 70.3C228.248 70.64 227.803 71.11 227.473 71.71C227.153 72.31 226.993 73 226.993 73.78C226.993 74.36 227.083 74.9 227.263 75.4C227.453 75.89 227.713 76.315 228.043 76.675C228.383 77.025 228.783 77.3 229.243 77.5C229.713 77.7 230.223 77.8 230.773 77.8Z" fill="#005789"/>
</svg>
